<?xml version="1.0" standalone="no"?>
<!DOCTYPE svg PUBLIC "-//W3C//DTD SVG 20010904//EN"
 "http://www.w3.org/TR/2001/REC-SVG-20010904/DTD/svg10.dtd">
<svg version="1.0" xmlns="http://www.w3.org/2000/svg"
 width="280.000000pt" height="280.000000pt" viewBox="0 0 280.000000 280.000000"
 preserveAspectRatio="xMidYMid meet">

<g transform="translate(0.000000,280.000000) scale(0.100000,-0.100000)"
fill="#000000" stroke="none">
<path d="M0 1400 l0 -1400 1400 0 1400 0 0 1400 0 1400 -1400 0 -1400 0 0
-1400z m2488 250 l2 -255 -70 70 -69 69 -3 115 -3 116 -116 3 -115 3 -69 69
-70 70 255 -2 255 -3 3 -255z m-1811 148 c18 -40 61 -138 97 -217 36 -80 66
-146 66 -148 0 -2 -26 -3 -58 -3 l-59 0 -19 43 -19 42 -99 0 -99 0 -14 -42
-15 -43 -60 0 c-33 0 -58 3 -56 8 2 4 41 103 88 220 l85 212 65 0 66 0 31 -72z
m379 -5 c38 -43 70 -80 72 -83 4 -5 25 17 101 108 41 50 46 52 92 52 l49 0 0
-220 0 -220 -55 0 -55 0 0 137 0 136 -21 -24 c-12 -13 -37 -43 -56 -66 -20
-24 -41 -43 -49 -43 -7 0 -37 27 -66 60 -29 33 -56 60 -60 60 -5 0 -8 -58 -8
-130 l0 -130 -55 0 -55 0 0 220 0 220 49 0 c49 0 50 -1 117 -77z m698 61 c102
-35 160 -140 137 -252 -14 -71 -51 -118 -115 -148 -46 -21 -65 -24 -183 -24
l-133 0 0 220 0 220 123 0 c88 0 137 -5 171 -16z m366 -219 l0 -95 95 0 c52 0
95 -4 95 -8 0 -5 -31 -39 -69 -75 l-69 -67 -101 0 -101 0 0 102 0 102 67 68
c37 38 71 68 75 68 5 0 8 -43 8 -95z m-1488 -452 c36 -33 15 -153 -28 -153
-16 0 -18 -11 -5 -26 5 -5 20 -31 35 -57 l26 -48 -27 3 c-22 2 -35 16 -63 66
l-35 62 -75 -2 -75 -3 -3 -62 c-3 -55 -6 -63 -22 -63 -19 0 -20 8 -20 150 l0
150 137 0 c113 0 140 -3 155 -17z m370 0 c15 -14 18 -32 18 -134 0 -94 -3
-121 -16 -133 -12 -13 -40 -16 -144 -16 -118 0 -130 2 -140 19 -5 11 -10 71
-10 135 0 150 -4 146 152 146 99 0 125 -3 140 -17z m388 -3 c0 -19 -7 -20
-130 -20 l-130 0 0 -110 0 -110 130 0 c123 0 130 -1 130 -20 0 -19 -7 -20
-139 -20 -117 0 -141 3 -152 17 -10 11 -14 49 -14 133 0 84 4 122 14 133 11
14 35 17 152 17 132 0 139 -1 139 -20z m100 -77 c0 -15 1 -15 18 0 23 21 61
22 90 1 21 -15 25 -15 41 0 26 23 68 20 96 -9 23 -22 25 -32 25 -110 0 -84 0
-85 -25 -85 -25 0 -25 1 -25 85 l0 85 -45 0 -45 0 0 -85 c0 -78 -2 -85 -20
-85 -17 0 -19 8 -22 83 l-3 82 -42 3 -43 3 0 -85 c0 -79 -2 -86 -20 -86 -19 0
-20 7 -20 110 0 103 1 110 20 110 12 0 20 -7 20 -17z"/>
<path d="M576 1750 c-3 -8 -17 -46 -31 -84 -14 -37 -25 -70 -25 -72 0 -2 30
-4 66 -4 75 0 73 -8 23 110 -17 39 -30 59 -33 50z"/>
<path d="M1570 1650 l0 -140 59 0 c97 0 151 50 151 140 0 89 -58 140 -160 140
l-50 0 0 -140z"/>
<path d="M382 1118 l3 -43 110 0 110 0 0 40 0 40 -113 3 -113 3 3 -43z"/>
<path d="M756 1144 c-3 -9 -6 -51 -6 -94 0 -115 -5 -110 115 -110 85 0 104 3
109 16 8 20 8 168 0 188 -9 24 -209 24 -218 0z"/>
</g>
</svg>
